<?xml version="1.0" encoding="UTF-8"?>
<svg xmlns="http://www.w3.org/2000/svg" xmlns:xlink="http://www.w3.org/1999/xlink" width="80px" height="80px" viewBox="0 0 80 80" version="1.1">
<g id="surface1">
<path style=" stroke:none;fill-rule:nonzero;fill:rgb(0%,0%,0%);fill-opacity:1;" d="M 16.460938 22.523438 C 13.058594 22.523438 9.609375 23.851562 9.03125 24.574219 C 8.882812 24.875 8.535156 27.300781 9.359375 27.300781 C 9.636719 27.300781 9.761719 27.347656 10.5625 26.972656 C 13.5625 25.796875 15.460938 25.824219 15.738281 25.824219 C 19.113281 25.5 21.0625 27.800781 20.761719 30.777344 L 20.761719 32.523438 C 17.910156 31.847656 16.285156 31.828125 15.484375 31.828125 C 11.332031 31.578125 7.5 33.765625 7.5 38.574219 C 7.5 43.847656 12.207031 44.976562 14.03125 44.902344 C 16.757812 44.925781 19.359375 43.703125 21.085938 41.578125 C 22.460938 44.652344 23.335938 44.449219 23.359375 44.449219 C 23.609375 44.449219 23.808594 44.347656 24.007812 44.222656 L 25.433594 43.222656 C 25.683594 43.074219 25.882812 42.824219 25.90625 42.523438 C 25.882812 41.800781 24.582031 40.675781 24.683594 38.148438 L 24.683594 30.351562 C 24.832031 28.203125 24.136719 26.097656 22.6875 24.472656 C 20.960938 23.023438 18.683594 22.324219 16.460938 22.523438 Z M 64.890625 22.523438 C 59.890625 22.523438 57.019531 25.648438 57.09375 28.824219 C 57.09375 33.171875 61.492188 34.550781 61.992188 34.703125 C 66.21875 36.027344 66.792969 36.074219 67.96875 37.074219 C 68.96875 38.101562 68.84375 40.101562 67.367188 40.976562 C 66.941406 41.226562 65.117188 42.324219 60.992188 41.476562 C 59.617188 41.199219 58.894531 40.875 57.769531 40.398438 C 57.46875 40.300781 56.765625 40.125 56.765625 41.050781 L 56.765625 42.273438 C 56.765625 42.851562 57.117188 43.375 57.640625 43.625 C 60.265625 44.949219 63.417969 45 64.09375 45 C 64.191406 45 69.941406 45.003906 71.867188 41.125 C 72.261719 40.324219 73.292969 37.402344 71.367188 34.902344 C 69.765625 33.027344 68.390625 32.828125 64.292969 31.578125 C 63.941406 31.476562 60.917969 30.699219 60.941406 28.574219 C 60.792969 25.847656 64.492188 25.703125 65.269531 25.75 C 68.394531 25.703125 69.941406 26.875 70.789062 26.949219 C 71.164062 26.949219 71.34375 26.726562 71.34375 26.226562 L 71.34375 25.074219 C 71.367188 24.796875 71.269531 24.527344 71.117188 24.300781 C 70.117188 23 66.292969 22.523438 64.890625 22.523438 Z M 26.945312 23.148438 C 26.667969 23.199219 26.46875 23.476562 26.519531 23.75 C 26.570312 24.074219 26.617188 24.402344 26.742188 24.726562 L 32.34375 43.199219 C 32.46875 43.796875 32.867188 44.449219 33.742188 44.351562 L 35.789062 44.351562 C 37.039062 44.476562 37.214844 43.273438 37.242188 43.148438 L 40.917969 27.75 L 44.644531 43.171875 C 44.667969 43.296875 44.84375 44.5 46.070312 44.375 L 48.144531 44.375 C 49.042969 44.476562 49.46875 43.824219 49.59375 43.222656 C 55.894531 22.949219 55.46875 24.324219 55.515625 24.125 C 55.617188 23.074219 55.015625 23.148438 54.917969 23.171875 L 52.691406 23.171875 C 51.566406 23.050781 51.34375 24.078125 51.292969 24.328125 L 47.144531 40.351562 L 43.394531 24.328125 C 43.21875 23.101562 42.21875 23.148438 41.96875 23.171875 L 40.042969 23.171875 C 38.945312 23.074219 38.667969 23.949219 38.59375 24.328125 L 34.867188 40.125 L 30.867188 24.328125 C 30.769531 23.824219 30.441406 23.050781 29.46875 23.148438 Z M 16.308594 34.726562 C 18.109375 34.75 19.664062 35.023438 20.738281 35.273438 C 20.738281 36.523438 20.78125 37.226562 20.507812 38.351562 C 20.15625 39.550781 18.609375 41.726562 14.960938 41.777344 C 12.859375 41.878906 11.488281 40.226562 11.609375 38.351562 C 11.488281 35.351562 14.582031 34.601562 16.308594 34.726562 Z M 72.601562 50.003906 C 70.269531 50.039062 67.515625 50.558594 65.425781 52.027344 C 64.78125 52.472656 64.894531 53.09375 65.609375 53.011719 C 67.960938 52.730469 73.191406 52.097656 74.125 53.289062 C 75.0625 54.484375 73.089844 59.417969 72.21875 61.621094 C 71.945312 62.277344 72.519531 62.550781 73.121094 62.050781 C 77.03125 58.777344 78.046875 51.910156 77.246094 50.921875 C 76.84375 50.429688 74.9375 49.972656 72.601562 50.003906 Z M 3.042969 52.503906 C 2.496094 52.578125 2.261719 53.269531 2.832031 53.820312 C 12.625 63.003906 25.5625 67.5 39.929688 67.5 C 50.179688 67.5 62.074219 64.15625 70.289062 57.855469 C 71.644531 56.808594 70.488281 55.238281 69.097656 55.859375 C 59.890625 59.921875 49.886719 61.878906 40.785156 61.878906 C 27.296875 61.878906 14.238281 59.0625 3.671875 52.664062 C 3.441406 52.527344 3.222656 52.480469 3.042969 52.503906 Z M 3.042969 52.503906 "/>
</g>
</svg>
