<?xml version="1.0" encoding="UTF-8"?>
<svg xmlns="http://www.w3.org/2000/svg" xmlns:xlink="http://www.w3.org/1999/xlink" width="127px" height="80px" viewBox="0 0 126 80" version="1.1">
<g id="surface1">
<path style=" stroke:none;fill-rule:nonzero;fill:rgb(98.823529%,98.823529%,98.823529%);fill-opacity:1;" d="M 0 0 C 41.578125 0 83.160156 0 126 0 C 126 26.398438 126 52.800781 126 80 C 84.421875 80 42.839844 80 0 80 C 0 53.601562 0 27.199219 0 0 Z M 0 0 "/>
<path style=" stroke:none;fill-rule:nonzero;fill:rgb(1.176471%,1.176471%,1.176471%);fill-opacity:1;" d="M 87.316406 18.617188 C 87.714844 18.617188 88.117188 18.613281 88.515625 18.609375 C 93.011719 18.589844 93.011719 18.589844 94.882812 19.617188 C 95.128906 19.699219 95.382812 19.773438 95.632812 19.84375 C 99.113281 20.972656 103.640625 23.910156 105.574219 27.117188 C 105.574219 27.304688 105.574219 27.496094 105.574219 27.691406 C 105.699219 27.691406 105.824219 27.691406 105.953125 27.691406 C 106.039062 27.871094 106.121094 28.050781 106.207031 28.234375 C 106.476562 28.828125 106.476562 28.828125 106.835938 29.148438 C 107.195312 29.523438 107.222656 29.875 107.289062 30.382812 C 106.691406 30.03125 106.101562 29.683594 105.574219 29.230469 C 105.574219 29.105469 105.574219 28.976562 105.574219 28.847656 C 105.40625 28.792969 105.242188 28.742188 105.074219 28.691406 C 104.429688 28.460938 103.851562 28.1875 103.246094 27.871094 C 102.683594 27.582031 102.164062 27.316406 101.5625 27.117188 C 101.5625 26.988281 101.5625 26.863281 101.5625 26.730469 C 101.191406 26.640625 100.816406 26.554688 100.441406 26.464844 C 100.234375 26.417969 100.027344 26.367188 99.8125 26.316406 C 99.570312 26.261719 99.328125 26.210938 99.082031 26.152344 C 98.941406 26.121094 98.804688 26.085938 98.660156 26.050781 C 97.296875 25.734375 95.976562 25.71875 94.582031 25.734375 C 94.25 25.734375 94.25 25.734375 93.910156 25.734375 C 92.164062 25.742188 90.585938 25.832031 88.914062 26.359375 C 88.136719 26.601562 87.488281 26.777344 86.671875 26.730469 C 86.671875 26.859375 86.671875 26.984375 86.671875 27.117188 C 86.550781 27.148438 86.425781 27.183594 86.300781 27.214844 C 82.082031 28.484375 78.550781 31.171875 75.367188 34.148438 C 75.027344 34.421875 75.027344 34.421875 74.644531 34.421875 C 74.582031 34.613281 74.519531 34.804688 74.453125 35 C 74.1875 35.269531 74.1875 35.269531 73.835938 35.566406 C 73.117188 36.175781 72.421875 36.808594 71.734375 37.453125 C 71.101562 38.042969 70.46875 38.632812 69.832031 39.21875 C 68.832031 40.136719 67.847656 41.058594 66.917969 42.046875 C 66.628906 42.308594 66.628906 42.308594 66.246094 42.308594 C 66.246094 42.433594 66.246094 42.5625 66.246094 42.691406 C 65.980469 42.953125 65.980469 42.953125 65.605469 43.265625 C 64.402344 44.292969 63.320312 45.445312 62.214844 46.582031 C 62.050781 46.75 61.886719 46.917969 61.71875 47.089844 C 61.570312 47.242188 61.421875 47.394531 61.269531 47.554688 C 60.898438 47.882812 60.898438 47.882812 60.519531 47.882812 C 60.46875 48 60.421875 48.113281 60.371094 48.230469 C 60.109375 48.699219 59.847656 48.941406 59.433594 49.277344 C 58.882812 49.746094 58.402344 50.21875 57.941406 50.769531 C 57.40625 51.402344 56.84375 51.925781 56.214844 52.460938 C 55.433594 53.167969 54.707031 53.929688 53.980469 54.6875 C 53.867188 54.800781 53.757812 54.917969 53.640625 55.035156 C 53.539062 55.140625 53.441406 55.242188 53.335938 55.351562 C 53.074219 55.578125 53.074219 55.578125 52.691406 55.578125 C 52.628906 55.765625 52.566406 55.957031 52.5 56.152344 C 52.011719 56.382812 52.011719 56.382812 51.546875 56.539062 C 51.546875 56.664062 51.546875 56.792969 51.546875 56.921875 C 51.109375 57.246094 50.675781 57.542969 50.222656 57.835938 C 49.957031 58.011719 49.691406 58.183594 49.425781 58.355469 C 49.296875 58.441406 49.167969 58.523438 49.035156 58.613281 C 48.601562 58.898438 48.175781 59.203125 47.75 59.507812 C 47.097656 59.949219 46.46875 60.203125 45.714844 60.425781 C 44.953125 60.671875 44.226562 60.996094 43.488281 61.3125 C 43.3125 61.386719 43.136719 61.460938 42.953125 61.539062 C 42.785156 61.609375 42.617188 61.683594 42.441406 61.757812 C 41.949219 61.941406 41.566406 61.953125 41.046875 61.921875 C 41.046875 62.050781 41.046875 62.175781 41.046875 62.308594 C 38.941406 62.898438 36.855469 62.914062 34.683594 62.910156 C 34.230469 62.910156 33.777344 62.910156 33.328125 62.910156 C 33.035156 62.910156 32.742188 62.910156 32.453125 62.910156 C 32.253906 62.910156 32.253906 62.910156 32.046875 62.910156 C 30.957031 62.90625 29.878906 62.855469 28.863281 62.433594 C 28.292969 62.203125 27.722656 61.996094 27.140625 61.796875 C 26.980469 61.742188 26.820312 61.6875 26.65625 61.632812 C 26.332031 61.523438 26.003906 61.414062 25.679688 61.304688 C 24.554688 60.917969 23.546875 60.421875 22.527344 59.808594 C 22.527344 59.679688 22.527344 59.554688 22.527344 59.421875 C 22.359375 59.375 22.191406 59.328125 22.015625 59.277344 C 19.0625 58.160156 16.804688 54.816406 15.199219 52.214844 C 14.902344 51.730469 14.902344 51.730469 14.566406 51.308594 C 14.316406 50.960938 14.316406 50.960938 14.316406 50.578125 C 15.050781 50.878906 15.480469 51.363281 16.035156 51.921875 C 16.246094 52.0625 16.453125 52.199219 16.667969 52.34375 C 16.839844 52.457031 17.007812 52.574219 17.183594 52.691406 C 17.183594 52.820312 17.183594 52.945312 17.183594 53.078125 C 17.34375 53.128906 17.507812 53.175781 17.675781 53.230469 C 18.351562 53.46875 18.949219 53.773438 19.582031 54.109375 C 22.027344 55.382812 24.363281 55.804688 27.097656 55.804688 C 27.488281 55.804688 27.882812 55.808594 28.273438 55.8125 C 28.648438 55.8125 28.648438 55.8125 29.03125 55.8125 C 29.371094 55.816406 29.371094 55.816406 29.71875 55.816406 C 30.375 55.769531 30.882812 55.613281 31.5 55.382812 C 31.980469 55.304688 32.460938 55.238281 32.945312 55.179688 C 33.742188 55.082031 34.53125 54.980469 35.316406 54.808594 C 35.316406 54.679688 35.316406 54.554688 35.316406 54.421875 C 35.5 54.375 35.683594 54.324219 35.871094 54.273438 C 36.109375 54.207031 36.347656 54.144531 36.59375 54.074219 C 36.832031 54.011719 37.070312 53.945312 37.3125 53.878906 C 37.933594 53.671875 38.398438 53.429688 38.945312 53.078125 C 39.132812 53.011719 39.324219 52.949219 39.519531 52.882812 C 39.601562 52.796875 39.6875 52.710938 39.777344 52.621094 C 40.179688 52.21875 40.617188 51.992188 41.117188 51.71875 C 42.464844 50.941406 43.65625 50.015625 44.863281 49.039062 C 45.058594 48.882812 45.253906 48.726562 45.453125 48.5625 C 46.320312 47.859375 47.132812 47.144531 47.917969 46.347656 C 48.296875 45.988281 48.679688 45.632812 49.0625 45.277344 C 49.28125 45.074219 49.503906 44.871094 49.722656 44.667969 C 49.832031 44.5625 49.945312 44.460938 50.058594 44.355469 C 50.394531 44.042969 50.730469 43.730469 51.066406 43.414062 C 52.867188 41.730469 52.867188 41.730469 53.644531 41.070312 C 54.421875 40.402344 55.125 39.667969 55.835938 38.933594 C 56.074219 38.691406 56.308594 38.449219 56.542969 38.210938 C 56.664062 38.085938 56.785156 37.960938 56.910156 37.832031 C 57.082031 37.65625 57.082031 37.65625 57.257812 37.476562 C 57.414062 37.316406 57.414062 37.316406 57.570312 37.15625 C 57.84375 36.921875 57.84375 36.921875 58.226562 36.921875 C 58.273438 36.808594 58.320312 36.691406 58.371094 36.574219 C 58.644531 36.09375 58.910156 35.867188 59.371094 35.578125 C 59.5 35.578125 59.625 35.578125 59.753906 35.578125 C 59.800781 35.46875 59.847656 35.355469 59.898438 35.242188 C 60.175781 34.734375 60.5 34.394531 60.910156 33.984375 C 61.070312 33.820312 61.226562 33.660156 61.390625 33.496094 C 61.566406 33.320312 61.738281 33.148438 61.914062 32.972656 C 62.09375 32.792969 62.273438 32.613281 62.457031 32.429688 C 62.832031 32.046875 63.210938 31.667969 63.589844 31.289062 C 64.070312 30.808594 64.550781 30.328125 65.027344 29.84375 C 65.402344 29.46875 65.773438 29.09375 66.144531 28.722656 C 66.40625 28.457031 66.667969 28.195312 66.929688 27.933594 C 72.222656 22.640625 72.222656 22.640625 74.835938 22.117188 C 74.835938 21.988281 74.835938 21.863281 74.835938 21.730469 C 77.402344 20.441406 77.402344 20.441406 78.84375 20.382812 C 78.84375 20.257812 78.84375 20.128906 78.84375 20 C 79.390625 19.863281 79.933594 19.726562 80.480469 19.589844 C 80.902344 19.480469 81.328125 19.375 81.75 19.261719 C 81.945312 19.210938 82.140625 19.164062 82.339844 19.109375 C 82.519531 19.066406 82.695312 19.019531 82.875 18.972656 C 84.355469 18.636719 85.8125 18.617188 87.316406 18.617188 Z M 87.316406 18.617188 "/>
<path style=" stroke:none;fill-rule:nonzero;fill:rgb(1.960784%,1.960784%,1.960784%);fill-opacity:1;" d="M 101.945312 28.460938 C 101.945312 28.589844 101.945312 28.714844 101.945312 28.847656 C 102.066406 28.886719 102.183594 28.925781 102.308594 28.964844 C 102.464844 29.015625 102.621094 29.070312 102.78125 29.121094 C 102.9375 29.175781 103.089844 29.226562 103.25 29.277344 C 103.664062 29.421875 103.664062 29.421875 104.046875 29.617188 C 104.046875 29.742188 104.046875 29.871094 104.046875 30 C 104.246094 30.066406 104.246094 30.066406 104.453125 30.128906 C 105.117188 30.4375 105.597656 30.867188 106.121094 31.371094 C 106.222656 31.464844 106.320312 31.558594 106.425781 31.65625 C 108.707031 33.832031 108.707031 33.832031 109.007812 35.191406 C 109.136719 35.191406 109.261719 35.191406 109.390625 35.191406 C 109.96875 36.972656 110 38.789062 110 40.648438 C 110 40.84375 110 41.035156 110 41.238281 C 109.984375 43.027344 109.792969 44.65625 109.199219 46.347656 C 109.109375 46.71875 109.023438 47.089844 108.9375 47.464844 C 108.496094 49.265625 107.695312 50.746094 106.71875 52.308594 C 106.632812 52.445312 106.550781 52.582031 106.464844 52.726562 C 105.597656 54.101562 104.542969 55.320312 103.472656 56.539062 C 103.347656 56.679688 103.226562 56.820312 103.097656 56.964844 C 102.304688 57.816406 101.40625 58.519531 100.476562 59.21875 C 100.355469 59.3125 100.234375 59.40625 100.105469 59.5 C 99.457031 59.980469 98.953125 60.308594 98.128906 60.382812 C 98.128906 60.511719 98.128906 60.636719 98.128906 60.769531 C 97.617188 61.003906 97.105469 61.238281 96.59375 61.46875 C 96.269531 61.617188 95.949219 61.773438 95.632812 61.945312 C 91.714844 64.003906 85.863281 63.410156 81.710938 62.5 C 81.519531 62.4375 81.332031 62.375 81.136719 62.308594 C 81.136719 62.179688 81.136719 62.054688 81.136719 61.921875 C 80.902344 61.914062 80.671875 61.90625 80.433594 61.898438 C 78.878906 61.730469 77.398438 60.953125 76.171875 60 C 76.308594 60.011719 76.449219 60.027344 76.589844 60.039062 C 80.574219 60.402344 85.085938 60.683594 88.773438 58.847656 C 89.046875 58.710938 89.046875 58.710938 89.328125 58.574219 C 89.71875 58.378906 90.109375 58.183594 90.496094 57.980469 C 90.863281 57.796875 91.230469 57.613281 91.601562 57.4375 C 92.550781 56.984375 93.210938 56.5625 93.925781 55.769531 C 94.230469 55.507812 94.53125 55.246094 94.835938 54.988281 C 95.910156 54.015625 96.734375 52.925781 97.554688 51.730469 C 97.679688 51.546875 97.808594 51.363281 97.9375 51.175781 C 98.644531 50.105469 99.121094 49.121094 99.464844 47.882812 C 99.589844 47.882812 99.714844 47.882812 99.84375 47.882812 C 100.5 43.667969 101.300781 38.472656 99.078125 34.582031 C 98.890625 34.230469 98.890625 34.230469 98.890625 33.847656 C 98.765625 33.847656 98.640625 33.847656 98.507812 33.847656 C 98.324219 33.570312 98.324219 33.570312 98.117188 33.183594 C 96.777344 30.964844 94.34375 29.027344 91.835938 28.363281 C 91.457031 28.28125 91.074219 28.207031 90.695312 28.136719 C 90.5625 28.113281 90.433594 28.085938 90.296875 28.0625 C 89.980469 28 89.664062 27.941406 89.34375 27.882812 C 89.34375 27.757812 89.34375 27.628906 89.34375 27.5 C 93.621094 26.636719 97.867188 26.953125 101.945312 28.460938 Z M 101.945312 28.460938 "/>
<path style=" stroke:none;fill-rule:nonzero;fill:rgb(1.568627%,1.568627%,1.568627%);fill-opacity:1;" d="M 33.648438 18.390625 C 34.011719 18.390625 34.011719 18.390625 34.382812 18.394531 C 37.449219 18.445312 40.21875 19.128906 43.144531 20 C 43.144531 20.125 43.144531 20.253906 43.144531 20.382812 C 43.996094 20.574219 43.996094 20.574219 44.863281 20.769531 C 44.863281 20.894531 44.863281 21.023438 44.863281 21.152344 C 44.695312 21.148438 44.53125 21.144531 44.355469 21.140625 C 40.113281 21.019531 40.113281 21.019531 35.949219 21.753906 C 35.382812 21.90625 34.941406 21.957031 34.363281 21.921875 C 34.363281 22.050781 34.363281 22.175781 34.363281 22.308594 C 34.253906 22.339844 34.148438 22.375 34.035156 22.40625 C 33.035156 22.722656 32.203125 23.109375 31.308594 23.652344 C 31.046875 23.777344 31.046875 23.777344 30.777344 23.90625 C 30.082031 24.273438 29.507812 24.710938 28.898438 25.203125 C 27.769531 26.113281 27.769531 26.113281 27.246094 26.359375 C 26.8125 26.597656 26.742188 26.859375 26.535156 27.308594 C 26.246094 27.617188 26.246094 27.617188 25.914062 27.921875 C 24.90625 28.90625 24.164062 30.019531 23.671875 31.347656 C 23.546875 31.347656 23.421875 31.347656 23.289062 31.347656 C 23.238281 31.539062 23.1875 31.734375 23.136719 31.933594 C 23.007812 32.421875 22.84375 32.832031 22.628906 33.292969 C 22.257812 34.148438 22.148438 35.019531 22.027344 35.9375 C 21.980469 36.265625 21.933594 36.59375 21.886719 36.921875 C 21.867188 37.066406 21.847656 37.207031 21.828125 37.355469 C 21.761719 37.691406 21.761719 37.691406 21.574219 37.882812 C 21.378906 40.191406 21.398438 42.515625 22.167969 44.710938 C 22.335938 45.191406 22.335938 45.191406 22.335938 45.769531 C 22.460938 45.769531 22.589844 45.769531 22.71875 45.769531 C 22.789062 45.933594 22.859375 46.101562 22.929688 46.269531 C 24.054688 48.746094 25.671875 50.769531 28.0625 52.117188 C 28.265625 52.242188 28.472656 52.371094 28.679688 52.503906 C 29.425781 52.929688 30.179688 53.128906 31.011719 53.316406 C 31.21875 53.367188 31.21875 53.367188 31.433594 53.417969 C 31.773438 53.5 32.113281 53.578125 32.453125 53.652344 C 32.453125 53.78125 32.453125 53.90625 32.453125 54.039062 C 31.109375 54.714844 29.109375 54.464844 27.644531 54.472656 C 27.296875 54.476562 27.296875 54.476562 26.9375 54.484375 C 24.78125 54.492188 22.738281 54.15625 20.738281 53.328125 C 20.53125 53.246094 20.324219 53.160156 20.113281 53.074219 C 19.964844 53.011719 19.816406 52.949219 19.664062 52.882812 C 19.664062 52.757812 19.664062 52.628906 19.664062 52.5 C 19.484375 52.46875 19.300781 52.4375 19.113281 52.402344 C 17.527344 51.933594 16.316406 50.503906 15.164062 49.363281 C 15.066406 49.265625 14.964844 49.164062 14.863281 49.0625 C 14.414062 48.609375 14.140625 48.308594 13.9375 47.691406 C 13.84375 47.601562 13.746094 47.511719 13.648438 47.414062 C 13.363281 47.117188 13.363281 47.117188 13.269531 46.707031 C 13.222656 46.527344 13.222656 46.527344 13.171875 46.347656 C 12.984375 46.28125 12.792969 46.21875 12.601562 46.152344 C 12.015625 42.484375 11.617188 37.96875 13.019531 34.449219 C 13.1875 34.003906 13.3125 33.554688 13.441406 33.09375 C 13.730469 32.101562 14.144531 31.210938 14.628906 30.300781 C 14.710938 30.140625 14.796875 29.980469 14.882812 29.816406 C 15.582031 28.53125 16.386719 27.425781 17.371094 26.347656 C 17.539062 26.15625 17.703125 25.964844 17.875 25.765625 C 19.386719 24.03125 21.066406 22.613281 22.980469 21.347656 C 23.09375 21.273438 23.203125 21.199219 23.316406 21.121094 C 23.941406 20.722656 24.464844 20.472656 25.199219 20.382812 C 25.199219 20.257812 25.199219 20.128906 25.199219 20 C 25.6875 19.851562 26.179688 19.703125 26.667969 19.554688 C 26.800781 19.515625 26.9375 19.472656 27.074219 19.429688 C 27.53125 19.292969 27.988281 19.164062 28.445312 19.039062 C 28.632812 18.984375 28.820312 18.933594 29.015625 18.878906 C 30.574219 18.476562 32.039062 18.371094 33.648438 18.390625 Z M 33.648438 18.390625 "/>
<path style=" stroke:none;fill-rule:nonzero;fill:rgb(1.960784%,1.960784%,1.960784%);fill-opacity:1;" d="M 68.726562 41.921875 C 69.402344 42.175781 69.726562 42.582031 70.167969 43.136719 C 70.574219 43.609375 71.039062 43.996094 71.507812 44.402344 C 71.96875 44.804688 72.414062 45.21875 72.859375 45.636719 C 74.050781 46.761719 75.277344 47.824219 76.554688 48.847656 C 76.769531 49.023438 76.769531 49.023438 76.988281 49.203125 C 77.972656 50.007812 79.007812 50.640625 80.121094 51.253906 C 80.269531 51.347656 80.414062 51.441406 80.5625 51.539062 C 80.5625 51.664062 80.5625 51.792969 80.5625 51.921875 C 80.667969 51.957031 80.773438 51.992188 80.878906 52.027344 C 81.09375 52.101562 81.09375 52.101562 81.316406 52.175781 C 81.472656 52.226562 81.632812 52.28125 81.796875 52.335938 C 82.089844 52.433594 82.386719 52.539062 82.679688 52.648438 C 86 53.851562 89.871094 54.21875 93.195312 52.820312 C 94.171875 52.304688 95.058594 51.6875 95.921875 51 C 96.21875 50.769531 96.21875 50.769531 96.601562 50.578125 C 96.371094 51.820312 95.671875 52.5 94.742188 53.28125 C 94.453125 53.53125 94.171875 53.789062 93.898438 54.058594 C 91.914062 55.992188 89.4375 57.304688 86.863281 58.269531 C 86.652344 58.355469 86.652344 58.355469 86.4375 58.445312 C 84.695312 59.164062 82.894531 59.066406 81.039062 59.0625 C 80.796875 59.0625 80.550781 59.0625 80.300781 59.066406 C 77.121094 59.0625 77.121094 59.0625 75.96875 58.570312 C 75.496094 58.375 75.046875 58.21875 74.550781 58.078125 C 73.796875 57.859375 73.082031 57.597656 72.355469 57.308594 C 72.222656 57.257812 72.085938 57.207031 71.949219 57.152344 C 69.21875 56.039062 67.277344 53.800781 65.253906 51.730469 C 64.960938 51.433594 64.667969 51.132812 64.375 50.835938 C 63.660156 50.109375 62.945312 49.382812 62.238281 48.652344 C 62.53125 48.023438 62.8125 47.667969 63.347656 47.222656 C 64.09375 46.59375 64.773438 45.914062 65.457031 45.210938 C 65.859375 44.800781 66.261719 44.390625 66.664062 43.976562 C 66.800781 43.835938 66.9375 43.695312 67.082031 43.546875 C 67.214844 43.414062 67.347656 43.277344 67.484375 43.140625 C 67.601562 43.015625 67.722656 42.894531 67.847656 42.765625 C 68.15625 42.5 68.15625 42.5 68.535156 42.5 C 68.597656 42.308594 68.664062 42.121094 68.726562 41.921875 Z M 68.726562 41.921875 "/>
<path style=" stroke:none;fill-rule:nonzero;fill:rgb(1.568627%,1.568627%,1.568627%);fill-opacity:1;" d="M 50.589844 24.617188 C 50.777344 24.699219 50.960938 24.785156 51.152344 24.871094 C 53.539062 26.058594 55.410156 28.28125 57.273438 30.160156 C 57.613281 30.5 57.953125 30.839844 58.292969 31.175781 C 58.507812 31.394531 58.722656 31.609375 58.941406 31.828125 C 59.042969 31.929688 59.144531 32.027344 59.246094 32.132812 C 59.945312 32.839844 59.945312 32.839844 59.945312 33.269531 C 59.691406 33.519531 59.691406 33.519531 59.324219 33.820312 C 58.601562 34.4375 57.9375 35.089844 57.273438 35.769531 C 56.515625 36.542969 55.746094 37.285156 54.917969 37.984375 C 54.613281 38.257812 54.355469 38.539062 54.085938 38.847656 C 53.644531 39.230469 53.644531 39.230469 53.226562 39.238281 C 52.425781 38.941406 51.929688 38.386719 51.332031 37.789062 C 50.292969 36.777344 49.242188 35.835938 48.105469 34.9375 C 47.726562 34.617188 47.726562 34.617188 47.535156 34.230469 C 47.421875 34.175781 47.308594 34.121094 47.191406 34.0625 C 46.773438 33.847656 46.773438 33.847656 46.445312 33.511719 C 45.914062 32.980469 45.339844 32.535156 44.746094 32.078125 C 44.632812 31.992188 44.519531 31.90625 44.40625 31.816406 C 43.800781 31.347656 43.800781 31.347656 43.144531 30.960938 C 43.144531 30.835938 43.144531 30.707031 43.144531 30.578125 C 43.011719 30.523438 42.875 30.472656 42.738281 30.421875 C 42.171875 30.183594 41.636719 29.910156 41.09375 29.628906 C 37.535156 27.832031 33.378906 27.210938 29.539062 28.421875 C 28.472656 28.792969 27.609375 29.304688 26.726562 30 C 26.410156 30.195312 26.09375 30.390625 25.773438 30.578125 C 26.054688 29.644531 26.601562 28.929688 27.300781 28.269531 C 27.425781 28.269531 27.550781 28.269531 27.683594 28.269531 C 27.734375 28.152344 27.785156 28.035156 27.839844 27.917969 C 28.441406 26.800781 29.714844 26.113281 30.75 25.433594 C 30.859375 25.359375 30.972656 25.28125 31.089844 25.207031 C 31.78125 24.761719 32.441406 24.488281 33.21875 24.230469 C 33.28125 24.105469 33.34375 23.976562 33.410156 23.847656 C 39 21.539062 45.1875 22.105469 50.589844 24.617188 Z M 50.589844 24.617188 "/>
<path style=" stroke:none;fill-rule:nonzero;fill:rgb(54.509804%,54.509804%,54.509804%);fill-opacity:1;" d="M 20.238281 54.421875 C 20.65625 54.511719 21.078125 54.597656 21.5 54.6875 C 21.851562 54.761719 21.851562 54.761719 22.210938 54.835938 C 22.84375 54.984375 23.441406 55.175781 24.054688 55.382812 C 24.796875 55.5625 25.507812 55.613281 26.273438 55.636719 C 26.507812 55.644531 26.746094 55.652344 26.992188 55.664062 C 27.238281 55.667969 27.488281 55.675781 27.742188 55.683594 C 28.117188 55.699219 28.117188 55.699219 28.5 55.710938 C 29.117188 55.730469 29.738281 55.75 30.355469 55.769531 C 30.355469 55.832031 30.355469 55.894531 30.355469 55.960938 C 29.578125 55.972656 28.800781 55.976562 28.023438 55.984375 C 27.757812 55.984375 27.496094 55.988281 27.234375 55.992188 C 24.734375 56.023438 22.46875 55.832031 20.238281 54.617188 C 20.238281 54.550781 20.238281 54.488281 20.238281 54.421875 Z M 20.238281 54.421875 "/>
<path style=" stroke:none;fill-rule:nonzero;fill:rgb(52.54902%,52.54902%,52.54902%);fill-opacity:1;" d="M 40.289062 20.921875 C 40.507812 20.921875 40.507812 20.921875 40.730469 20.917969 C 41.035156 20.917969 41.34375 20.917969 41.648438 20.914062 C 42.117188 20.914062 42.589844 20.90625 43.058594 20.902344 C 43.355469 20.898438 43.652344 20.898438 43.953125 20.898438 C 44.09375 20.894531 44.234375 20.894531 44.378906 20.890625 C 45.351562 20.894531 45.351562 20.894531 45.816406 21.253906 C 45.878906 21.347656 45.941406 21.441406 46.007812 21.539062 C 45.851562 21.523438 45.691406 21.511719 45.527344 21.496094 C 43.816406 21.359375 42.121094 21.324219 40.402344 21.335938 C 40.148438 21.335938 39.890625 21.335938 39.636719 21.335938 C 39.023438 21.339844 38.414062 21.34375 37.800781 21.347656 C 37.800781 21.28125 37.800781 21.21875 37.800781 21.152344 C 38.628906 20.949219 39.441406 20.925781 40.289062 20.921875 Z M 40.289062 20.921875 "/>
<path style=" stroke:none;fill-rule:nonzero;fill:rgb(27.45098%,27.45098%,27.45098%);fill-opacity:1;" d="M 19.664062 23.847656 C 19.789062 23.910156 19.914062 23.972656 20.046875 24.039062 C 19.675781 24.457031 19.308594 24.875 18.9375 25.289062 C 18.832031 25.40625 18.726562 25.527344 18.621094 25.648438 C 18.519531 25.761719 18.417969 25.875 18.3125 25.992188 C 18.21875 26.097656 18.125 26.199219 18.03125 26.308594 C 17.753906 26.539062 17.753906 26.539062 17.183594 26.539062 C 17.558594 26.125 17.9375 25.714844 18.316406 25.300781 C 18.421875 25.183594 18.53125 25.066406 18.640625 24.945312 C 18.746094 24.832031 18.847656 24.71875 18.953125 24.605469 C 19.046875 24.5 19.144531 24.398438 19.242188 24.289062 C 19.378906 24.140625 19.519531 23.992188 19.664062 23.847656 Z M 19.664062 23.847656 "/>
<path style=" stroke:none;fill-rule:nonzero;fill:rgb(21.176471%,21.176471%,21.176471%);fill-opacity:1;" d="M 31.117188 53.460938 C 31.558594 53.523438 32 53.589844 32.453125 53.652344 C 32.453125 53.78125 32.453125 53.90625 32.453125 54.039062 C 31.914062 54.3125 31.410156 54.296875 30.808594 54.339844 C 30.582031 54.355469 30.355469 54.371094 30.121094 54.386719 C 29.945312 54.398438 29.769531 54.410156 29.589844 54.421875 C 30.207031 54.007812 30.410156 54 31.117188 54.039062 C 31.117188 53.847656 31.117188 53.65625 31.117188 53.460938 Z M 31.117188 53.460938 "/>
<path style=" stroke:none;fill-rule:nonzero;fill:rgb(43.921569%,43.921569%,43.921569%);fill-opacity:1;" d="M 96.410156 50.578125 C 96.472656 50.765625 96.535156 50.957031 96.601562 51.152344 C 96.253906 51.765625 96.253906 51.765625 95.835938 52.308594 C 95.710938 52.308594 95.585938 52.308594 95.453125 52.308594 C 95.453125 52.179688 95.453125 52.054688 95.453125 51.921875 C 95.203125 51.988281 94.949219 52.050781 94.691406 52.117188 C 95.222656 51.550781 95.8125 51.070312 96.410156 50.578125 Z M 96.410156 50.578125 "/>
<path style=" stroke:none;fill-rule:nonzero;fill:rgb(23.529412%,23.529412%,23.529412%);fill-opacity:1;" d="M 29.210938 26.730469 C 28.945312 27.332031 28.632812 27.746094 28.171875 28.210938 C 28.058594 28.324219 27.941406 28.441406 27.824219 28.558594 C 27.492188 28.847656 27.492188 28.847656 26.917969 29.039062 C 27.042969 28.785156 27.171875 28.53125 27.300781 28.269531 C 27.425781 28.269531 27.550781 28.269531 27.683594 28.269531 C 27.730469 28.15625 27.777344 28.046875 27.824219 27.933594 C 28.144531 27.355469 28.507812 26.730469 29.210938 26.730469 Z M 29.210938 26.730469 "/>
<path style=" stroke:none;fill-rule:nonzero;fill:rgb(21.568627%,21.568627%,21.568627%);fill-opacity:1;" d="M 96.601562 53.078125 C 96.664062 53.265625 96.726562 53.457031 96.789062 53.652344 C 96.285156 54.160156 95.78125 54.667969 95.261719 55.191406 C 95.136719 55.128906 95.011719 55.066406 94.882812 55 C 95.449219 54.367188 96.015625 53.730469 96.601562 53.078125 Z M 96.601562 53.078125 "/>
<path style=" stroke:none;fill-rule:nonzero;fill:rgb(40.392157%,40.392157%,40.392157%);fill-opacity:1;" d="M 14.316406 50.578125 C 15.042969 50.863281 15.390625 51.300781 15.84375 51.921875 C 15.59375 51.988281 15.339844 52.050781 15.082031 52.117188 C 14.316406 51.007812 14.316406 51.007812 14.316406 50.578125 Z M 14.316406 50.578125 "/>
<path style=" stroke:none;fill-rule:nonzero;fill:rgb(21.960784%,21.960784%,21.960784%);fill-opacity:1;" d="M 106.71875 29.039062 C 107.015625 29.386719 107.015625 29.386719 107.289062 29.808594 C 107.226562 30 107.164062 30.1875 107.101562 30.382812 C 106.785156 30.066406 106.46875 29.75 106.144531 29.421875 C 106.269531 29.421875 106.398438 29.421875 106.527344 29.421875 C 106.589844 29.296875 106.652344 29.167969 106.71875 29.039062 Z M 106.71875 29.039062 "/>
</g>
</svg>
